# Blender v2.79 (sub 0) OBJ File: ''
# www.blender.org
v -9.060661 -5.708704 1.413118
v -7.463886 -5.660522 1.145808
v -5.407310 -5.736381 1.522049
v -4.285938 -5.569454 1.232494
v -9.015663 -5.606174 0.448832
v -6.105607 6.240179 0.519513
v -5.313425 6.261870 0.457985
v -6.551195 -5.403398 0.893759
v -7.968768 6.253964 0.500416
v -7.209657 6.239754 0.481842
v -8.043295 -5.025104 0.451471
v 3.897756 -5.688547 1.286058
v 4.844547 -5.628010 1.252805
v 8.818756 -5.747908 0.777608
v 2.779738 -5.689398 1.070242
v 6.599452 6.252203 0.480580
v 8.067865 6.278584 0.585701
v 7.422313 -5.598857 0.845057
v 6.111008 -5.583230 0.671644
v 7.285745 1.349440 0.491458
v 3.637705 6.282613 0.591811
v 5.639033 6.242720 0.555420
v 4.913011 6.224295 0.382599
vt 0.052368 0.528979
vt 0.075027 0.521483
vt 0.087593 0.556488
vt 0.439111 0.565306
vt 0.418094 0.595641
vt 0.435372 0.556043
vt 0.228979 0.014712
vt 0.255673 0.010305
vt 0.242821 0.356485
vt 0.651012 0.119250
vt 0.660304 0.367655
vt 0.647823 0.218623
vt 0.777303 0.651271
vt 0.785561 0.554013
vt 0.778297 0.904709
vt 0.006500 0.013359
vt 0.027465 0.009122
vt 0.016394 0.182053
vt 0.790305 0.455344
vt 0.776119 0.489357
vt 0.777578 0.267899
vt 0.259892 0.510915
vt 0.279480 0.522859
vt 0.257638 0.549168
vt 0.176974 0.002815
vt 0.168572 0.344313
vt 0.144235 0.175399
vt 0.211207 0.498089
vt 0.183466 0.494177
vt 0.200760 0.388218
vt 0.105730 0.330799
vt 0.129753 0.048341
vt 0.122405 0.142060
vt 0.865541 0.776803
vt 0.878728 0.491781
vt 0.876982 0.583277
vt 0.130206 0.630642
vt 0.130206 0.633289
vt 0.126762 0.629177
vt 0.320015 0.013018
vt 0.314989 0.300692
vt 0.301476 0.116423
vt 0.617404 0.213476
vt 0.603766 0.499274
vt 0.606740 0.240200
vt 0.050985 0.246844
vt 0.058466 0.018526
vt 0.078471 0.004519
vt 0.166087 0.507216
vt 0.163641 0.507871
vt 0.924599 0.489880
vt 0.913999 0.484596
vt 0.915943 0.309504
vt 0.502550 0.062193
vt 0.494876 0.383619
vt 0.485397 0.048488
vt 0.451048 0.494731
vt 0.460739 0.343976
vt 0.463971 0.495844
vt 0.096434 0.017128
vt 0.736388 0.433036
vt 0.742986 0.003837
vt 0.745446 0.324020
vt 0.566269 0.324620
vt 0.583970 0.024999
vt 0.586036 0.502932
vn -0.1082 0.3893 0.9147
vn -0.0927 0.4406 0.8929
vn -0.0932 0.1977 0.9758
vn -0.3736 0.3116 0.8737
vn -0.2500 0.9015 0.3532
vn 0.2366 0.0842 0.9680
vn 0.0825 0.0798 0.9934
vn 0.0063 0.0540 0.9985
vn -0.0016 0.0409 0.9992
vn 0.0036 0.0430 0.9991
vn -0.0207 0.1298 0.9913
vn 0.1005 0.6359 0.7652
vn 0.2173 0.1599 0.9629
vn 0.0304 0.0476 0.9984
vn -0.0893 -0.0102 0.9960
vn 0.1114 0.0334 0.9932
vn 0.0097 0.0013 1.0000
vn -0.0137 0.0305 0.9994
vn -0.0807 0.0044 0.9967
vn -0.4125 0.7384 0.5335
vn 0.1440 0.0576 0.9879
vn -0.1887 0.0512 0.9807
vn -0.0784 0.0671 0.9947
s 1
f 8/1/1 2/2/2 3/3/3
f 11/4/4 1/5/5 2/6/2
f 3/7/3 4/8/6 7/9/7
f 3/10/3 7/11/7 6/12/8
f 11/13/4 2/14/2 9/15/9
f 2/16/2 8/17/1 10/18/10
f 6/19/8 10/20/10 8/21/1
f 18/22/11 19/23/12 13/24/13
f 14/25/14 17/26/15 20/27/16
f 19/28/12 18/29/11 16/30/17
f 23/31/18 19/32/12 22/33/19
f 9/34/9 5/35/20 11/36/4
f 5/37/20 1/38/5 11/39/4
f 3/40/3 6/41/8 8/42/1
f 9/43/9 2/44/2 10/45/10
f 21/46/21 15/47/22 12/48/23
f 20/27/16 17/49/15 16/50/17
f 18/51/11 14/52/14 20/53/16
f 21/54/21 12/55/23 23/56/18
f 13/57/13 23/58/18 12/59/23
f 23/31/18 13/60/13 19/32/12
f 16/61/17 18/62/11 20/63/16
f 22/64/19 19/65/12 16/66/17
